<svg xmlns="http://www.w3.org/2000/svg" width="67.5" height="75.5" viewBox="0 0 67.5 75.5"><style type="text/css">.st0{fill:#512200;stroke:#512200;stroke-width:0.25;stroke-miterlimit:10;}</style><path class="st0" d="M55.1 33.9c.7 2.6 1 5.4 1 8.3v1l3.3 1.3 2.7-2.3 2.1 2.6-4.1 3.5-4.3-1.8c-.5 3.9-1.6 7.5-3.3 10.7l.6-.8 3.2 1.9 3-1.9 1.7 2.8-4.6 2.9-5-3c-3.9 6.3-10 10.4-16.9 10.4-6.8 0-12.9-4-16.9-10.3l-5 3-4.6-2.9 1.7-2.8 3 1.9 3.2-1.9.2.3c-1.5-3-2.6-6.4-3-10.1l-4.1 1.7-4.1-3.5 2.1-2.6 2.7 2.3 3.2-1.3v-1.1c0-2.9.4-5.7 1-8.3l-5.4-.2-2.3-4.9 2.9-1.4 1.6 3.3 3.7.2.1 1.1c2.2-6.8 6.6-12.2 12-14.9.1-2.1 1.8-3.7 3.8-3.7h9c2.1 0 3.9 1.8 3.9 3.9v.3c5.1 2.9 9.1 8.2 11.2 14.8l.1-1.5 3.7-.2 1.6-3.3 2.9 1.4-2.3 4.9-5.3.2zM45.6 9.8l-.5 1.1-.6.3-1.4.4-1.1.7-1.7 1v-1l1.9-1.3 1.3-.4 1.2-.8.6-1.4 1.3-.5-.3 1.3zM27.2 11.6l-1.4-.4-.7-.3-.4-1.1-.7-.6-.4-1.3 1.3.5.7 1.4 1.2.8 1.3.4 1.8 1.3v1l-1.6-1z"/></svg>