<?xml version="1.0" encoding="utf-8"?>
<!-- Generator: Adobe Illustrator 18.1.1, SVG Export Plug-In . SVG Version: 6.00 Build 0)  -->
<!DOCTYPE svg PUBLIC "-//W3C//DTD SVG 1.1//EN" "http://www.w3.org/Graphics/SVG/1.1/DTD/svg11.dtd">
<svg version="1.1" id="Layer_1" xmlns="http://www.w3.org/2000/svg" xmlns:xlink="http://www.w3.org/1999/xlink" x="0px" y="0px"
	 width="67.5px" height="75.5px" viewBox="0 0 67.5 75.5" style="enable-background:new 0 0 67.5 75.5;" xml:space="preserve">
<style type="text/css">
	.st0{fill:#512200;stroke:#512200;stroke-width:0.25;stroke-miterlimit:10;}
</style>
<g>
	<g>
		<path class="st0" d="M55.1,33.9c0.7,2.6,1,5.4,1,8.3c0,0.3,0,0.7,0,1l3.3,1.3l2.7-2.3l2.1,2.6l-4.1,3.5l-4.3-1.8
			c-0.5,3.9-1.6,7.5-3.3,10.7l0.6-0.8l3.2,1.9l3-1.9l1.7,2.8l-4.6,2.9l-5-3c-3.9,6.3-10,10.4-16.9,10.4c-6.8,0-12.9-4-16.9-10.3
			l-5,3l-4.6-2.9l1.7-2.8l3,1.9l3.2-1.9l0.2,0.3c-1.5-3-2.6-6.4-3-10.1l-4.1,1.7l-4.1-3.5l2.1-2.6l2.7,2.3l3.2-1.3
			c0-0.4,0-0.7,0-1.1c0-2.9,0.4-5.7,1-8.3l-5.4-0.2l-2.3-4.9l2.9-1.4l1.6,3.3l3.7,0.2l0.1,1.1c2.2-6.8,6.6-12.2,12-14.9
			c0.1-2.1,1.8-3.7,3.8-3.7h9c2.1,0,3.9,1.8,3.9,3.9c0,0.1,0,0.2,0,0.3c5.1,2.9,9.1,8.2,11.2,14.8l0.1-1.5l3.7-0.2l1.6-3.3l2.9,1.4
			l-2.3,4.9L55.1,33.9z"/>
		<polygon class="st0" points="45.6,9.8 45.1,10.9 44.5,11.2 43.1,11.6 42,12.3 40.3,13.3 40.3,12.3 42.2,11 43.5,10.6 44.7,9.8 
			45.3,8.4 46.6,7.9 46.3,9.2 		"/>
		<polygon class="st0" points="27.2,11.6 25.8,11.2 25.1,10.9 24.7,9.8 24,9.2 23.6,7.9 24.9,8.4 25.6,9.8 26.8,10.6 28.1,11 
			29.9,12.3 29.9,13.3 28.3,12.3 		"/>
	</g>
</g>
</svg>
